<svg width="65" height="65" viewBox="0 0 65 65" fill="none" xmlns="http://www.w3.org/2000/svg">
<path d="M3.39869 1.69935H62.8758V63.7255H3.39869V1.69935Z" fill="#F2F2F2"/>
<path fill-rule="evenodd" clip-rule="evenodd" d="M21.8422 13.712H28.6131L38.3495 46.3314H32.4683L30.0465 37.0398H20.5573L18.086 46.3315H12.8965L21.8423 15.2442L21.8422 13.712ZM28.712 32.2458L25.3511 18.4564L21.8915 32.2456L28.712 32.2458ZM48.432 22.0896H43.0942V46.3315H48.432V22.0896ZM45.6942 12.6713C43.965 12.6713 42.5632 14.057 42.5632 15.7664C42.5632 17.4759 43.965 18.8617 45.6942 18.8617C47.4235 18.8617 48.8254 17.476 48.8254 15.7666C48.8254 14.0571 47.4236 12.6713 45.6942 12.6713ZM65 65H0V0H65V65Z" fill="black"/>
</svg>
