<svg width="65" height="65" viewBox="0 0 65 65" fill="none" xmlns="http://www.w3.org/2000/svg">
<path d="M0 0H65V65H0V0Z" fill="black"/>
<path d="M41.8929 26.6188C43.1579 25.8358 44.133 24.6625 44.6708 23.2766C45.2086 21.8906 45.2797 20.3674 44.8734 18.9375C44.4671 17.5075 43.6056 16.2487 42.4191 15.3515C41.2326 14.4543 39.7859 13.9675 38.2977 13.9648H26.656C25.1679 13.9675 23.7211 14.4543 22.5346 15.3515C21.3481 16.2487 20.4866 17.5075 20.0803 18.9375C19.674 20.3674 19.7452 21.8906 20.2829 23.2766C20.8207 24.6625 21.7959 25.8358 23.0608 26.6188C22.0658 27.2291 21.2441 28.084 20.674 29.1019C20.104 30.1197 19.8047 31.2665 19.8047 32.4328C19.8047 33.599 20.104 34.7458 20.674 35.7636C21.2441 36.7815 22.0658 37.6364 23.0608 38.2467C22.0446 38.8728 21.21 39.7534 20.6397 40.8011C20.0694 41.8488 19.7832 43.0272 19.8096 44.2195C19.836 45.4117 20.1741 46.5764 20.7902 47.5979C21.4063 48.6194 22.2791 49.4622 23.322 50.0428C24.3649 50.6234 25.5416 50.9216 26.7355 50.9077C27.9294 50.8939 29.0989 50.5685 30.128 49.9639C31.1571 49.3593 32.0101 48.4964 32.6023 47.4609C33.1945 46.4254 33.5054 45.2532 33.5041 44.0607V37.3062C34.189 37.9907 35.0116 38.5221 35.9175 38.8655C36.8233 39.2088 37.7918 39.3563 38.7589 39.2981C39.7261 39.24 40.6698 38.9775 41.5279 38.528C42.3859 38.0785 43.1387 37.4523 43.7365 36.6907C44.3343 35.9291 44.7635 35.0495 44.9957 34.11C45.2279 33.1704 45.2579 32.1924 45.0837 31.2404C44.9094 30.2885 44.5349 29.3843 43.9849 28.5876C43.4348 27.7909 42.7218 27.1198 41.8929 26.6188ZM43.0913 20.8048C43.0868 22.0733 42.5803 23.2885 41.6823 24.1854C40.7843 25.0824 39.5677 25.5883 38.2977 25.5928H33.5041V16.0168H38.2977C39.5677 16.0213 40.7843 16.5272 41.6823 17.4242C42.5803 18.3211 43.0868 19.5363 43.0913 20.8048ZM21.8624 20.8048C21.8669 19.5363 22.3734 18.3211 23.2714 17.4242C24.1694 16.5272 25.3861 16.0213 26.656 16.0168H31.4496V25.5928H26.656C25.3861 25.5883 24.1694 25.0824 23.2714 24.1854C22.3734 23.2885 21.8669 22.0733 21.8624 20.8048ZM21.8624 32.4328C21.8669 31.1643 22.3734 29.9491 23.2714 29.0521C24.1694 28.1552 25.3861 27.6493 26.656 27.6448H31.4496V37.2207H26.656C25.3861 37.2162 24.1694 36.7103 23.2714 35.8134C22.3734 34.9164 21.8669 33.7012 21.8624 32.4328ZM26.656 48.8487C25.3847 48.8487 24.1654 48.3442 23.2664 47.4463C22.3674 46.5484 21.8624 45.3306 21.8624 44.0607C21.8624 42.7908 22.3674 41.573 23.2664 40.6751C24.1654 39.7772 25.3847 39.2727 26.656 39.2727H31.4496V44.0607C31.4451 45.3292 30.9386 46.5444 30.0406 47.4413C29.1426 48.3383 27.926 48.8442 26.656 48.8487ZM38.2977 37.2207C37.0263 37.2207 35.8071 36.7163 34.9081 35.8184C34.0091 34.9204 33.5041 33.7026 33.5041 32.4328C33.5041 31.1629 34.0091 29.9451 34.9081 29.0471C35.8071 28.1492 37.0263 27.6448 38.2977 27.6448C39.569 27.6448 40.7883 28.1492 41.6873 29.0471C42.5863 29.9451 43.0913 31.1629 43.0913 32.4328C43.0913 33.7026 42.5863 34.9204 41.6873 35.8184C40.7883 36.7163 39.569 37.2207 38.2977 37.2207Z" fill="#F2F2F2"/>
</svg>
