<svg width="30" height="30" viewBox="0 0 30 30" fill="none" xmlns="http://www.w3.org/2000/svg">
<path d="M0 0H30V30H0V0Z" fill="#131313"/>
<path d="M6.34625 11.8212C6.34625 10.8487 6.51625 9.93 6.85125 9.0725C7.17132 8.23963 7.64685 7.47521 8.2525 6.82C8.85692 6.17339 9.54858 5.61425 10.3075 5.15875C11.0861 4.68769 11.9291 4.33231 12.81 4.10375C13.7015 3.86965 14.6195 3.75159 15.5412 3.7525C16.965 3.7525 18.29 4.05375 19.5187 4.65375C20.7315 5.24281 21.7637 6.14681 22.5075 7.27125C23.275 8.415 23.6562 9.70875 23.6562 11.1512C23.6562 12.0162 23.5713 12.8625 23.3975 13.69C23.2269 14.517 22.9557 15.3201 22.59 16.0812C22.2414 16.8181 21.7856 17.4992 21.2375 18.1025C20.6866 18.6962 20.0194 19.1702 19.2775 19.495C18.472 19.848 17.6007 20.0257 16.7212 20.0162C16.11 20.0162 15.5 19.8725 14.8975 19.5837C14.295 19.2962 13.8625 18.9012 13.6025 18.395C13.5112 18.7462 13.3862 19.2537 13.22 19.9175C13.06 20.58 12.9525 21.0075 12.905 21.2013C12.855 21.3938 12.7625 21.715 12.6275 22.16C12.5359 22.4892 12.4185 22.8106 12.2762 23.1212L11.8463 23.9637C11.6603 24.3253 11.4524 24.6751 11.2238 25.0112C10.9975 25.3387 10.7175 25.73 10.3837 26.18L10.1975 26.2462L10.0737 26.1112C9.94 24.695 9.87125 23.8475 9.87125 23.5675C9.87125 22.7387 9.97 21.8088 10.165 20.7762C10.3562 19.745 10.6587 18.4487 11.065 16.89C11.4712 15.3325 11.7037 14.4162 11.7662 14.145C11.48 13.5612 11.335 12.7987 11.335 11.8612C11.335 11.1125 11.5687 10.4113 12.0375 9.75125C12.5075 9.09375 13.1012 8.765 13.8212 8.765C14.3725 8.765 14.8 8.9475 15.1062 9.31375C15.4137 9.67875 15.5637 10.1388 15.5637 10.7C15.5637 11.295 15.3663 12.1562 14.9688 13.2825C14.5712 14.41 14.3737 15.2512 14.3737 15.81C14.3737 16.3762 14.5762 16.85 14.9812 17.2212C15.3809 17.5927 15.9095 17.794 16.455 17.7825C16.95 17.7825 17.4087 17.67 17.835 17.4437C18.2546 17.2241 18.6178 16.9106 18.8962 16.5275C19.5028 15.6954 19.9352 14.7494 20.1675 13.7462C20.2875 13.2187 20.38 12.7175 20.4375 12.2462C20.4988 11.7725 20.525 11.325 20.525 10.9C20.525 9.34125 20.03 8.12625 19.0462 7.25625C18.0575 6.38625 16.77 5.95375 15.1862 5.95375C13.385 5.95375 11.8787 6.53625 10.6725 7.705C9.465 8.87 8.8575 10.3512 8.8575 12.1475C8.8575 12.5437 8.9175 12.9262 9.03125 13.2962C9.1425 13.665 9.26375 13.9587 9.395 14.1762C9.525 14.39 9.6475 14.5987 9.75875 14.7912C9.87125 14.9837 9.93 15.1212 9.93 15.2037C9.93 15.4562 9.86375 15.785 9.73 16.1912C9.59125 16.5975 9.4275 16.8 9.23 16.8C9.21125 16.8 9.13375 16.7862 8.99875 16.7575C8.5312 16.6179 8.10897 16.357 7.775 16.0012C7.42055 15.6326 7.14082 15.1988 6.95125 14.7237C6.76222 14.2504 6.61499 13.7615 6.51125 13.2625C6.39916 12.7903 6.34377 12.3065 6.34625 11.8212Z" fill="#EEEEEE"/>
</svg>
