<svg width="65" height="65" viewBox="0 0 65 65" fill="none" xmlns="http://www.w3.org/2000/svg">
<path d="M0 0H65V65H0V0Z" fill="black"/>
<path d="M55.1391 27.3223L44.3589 15.002C44.2508 14.8793 44.1174 14.7813 43.9679 14.7148C43.8184 14.6484 43.6562 14.615 43.4926 14.617H21.9322C21.7686 14.615 21.6065 14.6484 21.457 14.7148C21.3075 14.7813 21.1741 14.8793 21.0659 15.002L10.2857 27.3223C10.0975 27.5395 9.99558 27.8182 9.99913 28.1056C10.0027 28.393 10.1115 28.6691 10.3049 28.8816L31.8654 51.9821C31.9735 52.0987 32.1046 52.1917 32.2503 52.2554C32.3961 52.319 32.5534 52.3518 32.7124 52.3518C32.8715 52.3518 33.0288 52.319 33.1745 52.2554C33.3203 52.1917 33.4513 52.0987 33.5594 51.9821L55.1199 28.8816C55.3134 28.6691 55.4222 28.393 55.4257 28.1056C55.4293 27.8182 55.3273 27.5395 55.1391 27.3223ZM22.452 16.9271H30.3639L22.683 26.9373H13.693L22.452 16.9271ZM32.7124 17.6778L39.8158 26.9373H25.609L32.7124 17.6778ZM13.8085 29.2473H22.4905L29.2666 45.8027L13.8085 29.2473ZM32.7124 48.1512L24.9738 29.2473H40.4511L32.7124 48.1512ZM36.1582 45.8027L42.9344 29.2473H51.6163L36.1582 45.8027ZM42.7419 26.9373L35.061 16.9271H42.9729L51.7318 26.9373H42.7419Z" fill="#F2F2F2"/>
</svg>
